<svg width="720" height="440" viewBox="0 0 720 440" xmlns="http://www.w3.org/2000/svg" font-family="'Cascadia Code','Fira Code','Courier New',monospace">
  <rect width="720" height="440" rx="10" fill="#09090f"/>
  <rect width="720" height="48" rx="10" fill="#10101e"/>
  <rect y="32" width="720" height="16" fill="#10101e"/>
  <text x="20" y="30" fill="#f97316" font-size="16" font-weight="bold">⚡ HERALD</text>
  <text x="94" y="30" fill="#555" font-size="12">news-to-trade signal engine</text>
  <text x="510" y="30" fill="#27c93f" font-size="11">● SCANNING</text>
  <text x="588" y="30" fill="#555" font-size="11">5m interval</text>

  <!-- stats -->
  <rect x="16" y="64" width="154" height="64" rx="6" fill="#111120" stroke="#1e1e30" stroke-width="1"/>
  <text x="28" y="82" fill="#555" font-size="10">NEWS SCANNED</text>
  <text x="28" y="108" fill="#e0e0e0" font-size="26" font-weight="bold">847</text>
  <text x="28" y="122" fill="#555" font-size="10">last 5 min</text>

  <rect x="182" y="64" width="154" height="64" rx="6" fill="#111120" stroke="#1e1e30" stroke-width="1"/>
  <text x="194" y="82" fill="#555" font-size="10">ACTIVE SIGNALS</text>
  <text x="194" y="108" fill="#f97316" font-size="26" font-weight="bold">3</text>
  <text x="194" y="122" fill="#555" font-size="10">2 bullish / 1 bearish</text>

  <rect x="348" y="64" width="154" height="64" rx="6" fill="#111120" stroke="#1e1e30" stroke-width="1"/>
  <text x="360" y="82" fill="#555" font-size="10">AVG CONFIDENCE</text>
  <text x="360" y="108" fill="#e0e0e0" font-size="26" font-weight="bold">0.81</text>
  <text x="360" y="122" fill="#555" font-size="10">this session</text>

  <rect x="514" y="64" width="190" height="64" rx="6" fill="#111120" stroke="#1e1e30" stroke-width="1"/>
  <text x="526" y="82" fill="#555" font-size="10">TOP CATEGORY</text>
  <text x="526" y="104" fill="#f97316" font-size="14">listing</text>
  <text x="526" y="122" fill="#555" font-size="10">3 events this hour</text>

  <!-- signal feed header -->
  <text x="20" y="154" fill="#444" font-size="10">LIVE SIGNAL FEED</text>
  <rect x="16" y="160" width="688" height="1" fill="#1e1e30"/>

  <!-- signal 1 - bullish listing -->
  <rect x="16" y="166" width="688" height="56" rx="4" fill="#0d1a0d"/>
  <rect x="16" y="166" width="4" height="56" rx="2" fill="#27c93f"/>
  <text x="28" y="182" fill="#27c93f" font-size="10" font-weight="bold">↑ BULLISH</text>
  <text x="90" y="182" fill="#aaa" font-size="10">SOL</text>
  <text x="120" y="182" fill="#555" font-size="10">conf 0.91 · immediate · est +18%</text>
  <text x="28" y="198" fill="#e0e0e0" font-size="11">Coinbase announces SOL spot ETF filing — first major US exchange to file</text>
  <text x="28" y="214" fill="#555" font-size="10">Entry: buy on confirmation, wait for 15m close above resistance · Risk: filing rejection invalidates</text>

  <!-- signal 2 - bearish hack -->
  <rect x="16" y="226" width="688" height="56" rx="4" fill="#1a0808"/>
  <rect x="16" y="226" width="4" height="56" rx="2" fill="#e05c5c"/>
  <text x="28" y="242" fill="#e05c5c" font-size="10" font-weight="bold">↓ BEARISH</text>
  <text x="90" y="242" fill="#aaa" font-size="10">AAVE</text>
  <text x="126" y="242" fill="#555" font-size="10">conf 0.88 · immediate · est -22%</text>
  <text x="28" y="258" fill="#e0e0e0" font-size="11">AAVE v3 exploit reported — $47M drained from ETH mainnet pool</text>
  <text x="28" y="274" fill="#555" font-size="10">Entry: short on confirmation · Risk: funds recovered or exploit overstated</text>

  <!-- signal 3 - bullish funding -->
  <rect x="16" y="286" width="688" height="56" rx="4" fill="#0d1a0d"/>
  <rect x="16" y="286" width="4" height="56" rx="2" fill="#27c93f"/>
  <text x="28" y="302" fill="#27c93f" font-size="10" font-weight="bold">↑ BULLISH</text>
  <text x="90" y="302" fill="#aaa" font-size="10">JTO</text>
  <text x="116" y="302" fill="#555" font-size="10">conf 0.74 · 4h · est +12%</text>
  <text x="28" y="318" fill="#e0e0e0" font-size="11">Jito Labs raises $50M Series B led by a16z — expansion to 3 new chains</text>
  <text x="28" y="334" fill="#555" font-size="10">Entry: accumulate on dips over next 4h · Risk: market-wide selloff overrides</text>

  <!-- news queue -->
  <rect x="16" y="356" width="688" height="1" fill="#1e1e30"/>
  <text x="20" y="374" fill="#444" font-size="10">NEWS QUEUE — 4 items pending analysis</text>
  <text x="20" y="390" fill="#555" font-size="10">Fed minutes released: rates held steady · BTC whale moves 2,400 BTC to Binance · Solana validator upgrade v1.18 · Binance lists PENGU perps</text>

  <rect x="0" y="416" width="720" height="24" rx="4" fill="#09090f"/>
  <text x="20" y="430" fill="#333" font-size="10">sources: cryptopanic · coindesk · thedefiant · scanning every 5 minutes</text>
  <text x="680" y="430" fill="#333" font-size="10">v0.1.0</text>
</svg>
